<?xml version="1.0" encoding="UTF-8" standalone="no"?>
<svg
   xmlns:dc="http://purl.org/dc/elements/1.1/"
   xmlns:cc="http://creativecommons.org/ns#"
   xmlns:rdf="http://www.w3.org/1999/02/22-rdf-syntax-ns#"
   xmlns:svg="http://www.w3.org/2000/svg"
   xmlns="http://www.w3.org/2000/svg"
   xmlns:sodipodi="http://sodipodi.sourceforge.net/DTD/sodipodi-0.dtd"
   xmlns:inkscape="http://www.inkscape.org/namespaces/inkscape"
   aria-hidden="true"
   focusable="false"
   data-prefix="fas"
   data-icon="eye"
   class="svg-inline--fa fa-eye fa-w-18"
   role="img"
   viewBox="0 0 32 32"
   version="1.1"
   id="svg4"
   sodipodi:docname="eye.svg"
   width="32"
   height="32"
   inkscape:version="1.0.2-2 (e86c870879, 2021-01-15)">
  <metadata
     id="metadata10">
    <rdf:RDF>
      <cc:Work
         rdf:about="">
        <dc:format>image/svg+xml</dc:format>
        <dc:type
           rdf:resource="http://purl.org/dc/dcmitype/StillImage" />
        <dc:title />
      </cc:Work>
    </rdf:RDF>
  </metadata>
  <defs
     id="defs8" />
  <sodipodi:namedview
     pagecolor="#ffffff"
     bordercolor="#666666"
     borderopacity="1"
     objecttolerance="10"
     gridtolerance="10"
     guidetolerance="10"
     inkscape:pageopacity="0"
     inkscape:pageshadow="2"
     inkscape:window-width="1920"
     inkscape:window-height="1017"
     id="namedview6"
     showgrid="false"
     inkscape:zoom="13.28125"
     inkscape:cx="27.958069"
     inkscape:cy="18.82197"
     inkscape:window-x="-8"
     inkscape:window-y="-8"
     inkscape:window-maximized="1"
     inkscape:current-layer="svg4"
     inkscape:document-rotation="0" />
  <path
     fill="currentColor"
     d="M 31.448203,15.322158 C 28.510925,9.5911328 22.695947,5.7135779 16.037646,5.7135779 c -6.6582991,0 -12.4749015,3.8802639 -15.4105543,9.6091201 a 1.7521843,1.7521843 0 0 0 0,1.581029 c 2.9372781,5.731024 8.7522552,9.608578 15.4105543,9.608578 6.658301,0 12.474903,-3.880263 15.410557,-9.60912 a 1.7521843,1.7521843 0 0 0 0,-1.581027 z m -15.410557,8.590306 a 7.7995218,7.7995218 0 1 1 7.799524,-7.79952 7.7957308,7.7957308 0 0 1 -7.799524,7.79952 z m 0,-12.999203 a 5.1623086,5.1623086 0 0 0 -1.370873,0.205281 2.5917161,2.5917161 0 0 1 -3.623528,3.623527 5.1877654,5.1877654 0 1 0 4.994401,-3.828808 z"
     id="path2"
     style="fill:#4d4d4d;stroke-width:0.0541633" />
</svg>
