<?xml version="1.0" encoding="UTF-8" standalone="no"?>
<svg
   xmlns:dc="http://purl.org/dc/elements/1.1/"
   xmlns:cc="http://creativecommons.org/ns#"
   xmlns:rdf="http://www.w3.org/1999/02/22-rdf-syntax-ns#"
   xmlns:svg="http://www.w3.org/2000/svg"
   xmlns="http://www.w3.org/2000/svg"
   xmlns:sodipodi="http://sodipodi.sourceforge.net/DTD/sodipodi-0.dtd"
   xmlns:inkscape="http://www.inkscape.org/namespaces/inkscape"
   aria-hidden="true"
   focusable="false"
   data-prefix="fas"
   data-icon="pencil-alt"
   class="svg-inline--fa fa-pencil-alt fa-w-16"
   role="img"
   viewBox="0 0 512 512"
   version="1.1"
   id="svg4"
   sodipodi:docname="pencil.svg"
   inkscape:version="1.0.2-2 (e86c870879, 2021-01-15)">
  <metadata
     id="metadata10">
    <rdf:RDF>
      <cc:Work
         rdf:about="">
        <dc:format>image/svg+xml</dc:format>
        <dc:type
           rdf:resource="http://purl.org/dc/dcmitype/StillImage" />
      </cc:Work>
    </rdf:RDF>
  </metadata>
  <defs
     id="defs8" />
  <sodipodi:namedview
     pagecolor="#ffffff"
     bordercolor="#666666"
     borderopacity="1"
     objecttolerance="10"
     gridtolerance="10"
     guidetolerance="10"
     inkscape:pageopacity="0"
     inkscape:pageshadow="2"
     inkscape:window-width="820"
     inkscape:window-height="480"
     id="namedview6"
     showgrid="false"
     inkscape:zoom="0.41503906"
     inkscape:cx="228.0875"
     inkscape:cy="266.05347"
     inkscape:window-x="997"
     inkscape:window-y="143"
     inkscape:window-maximized="0"
     inkscape:current-layer="svg4" />
  <path
     fill="currentColor"
     d="m 497.90001,142.1 -46.1,46.1 c -4.7,4.7 -12.3,4.7 -17,0 l -111,-111 c -4.7,-4.7 -4.7,-12.3 0,-17 l 46.1,-46.1 c 18.7,-18.7 49.1,-18.7 67.9,0 l 60.1,60.1 c 18.79999,18.7 18.79999,49.1 0,67.9 z M 284.20001,99.8 21.6,362.4 0.4,483.9 c -2.9000001,16.4 11.400001,30.6 27.800001,27.8 l 121.500009,-21.3 262.6,-262.6 c 4.7,-4.7 4.7,-12.3 0,-17 l -111,-111 c -4.8,-4.7 -12.4,-4.7 -17.1,0 z M 124.1,339.9 c -5.5,-5.5 -5.5,-14.3 0,-19.8 l 154.00001,-154 c 5.5,-5.5 14.3,-5.5 19.8,0 5.5,5.5 5.5,14.3 0,19.8 l -154,154 C 138.4,345.4 129.6,345.4 124.1,339.9 Z M 88.000004,424 h 48.000006 v 36.3 l -64.500009,11.3 -31.1,-31.1 11.300001,-64.5 h 36.300002 z"
     id="path2"
     style="fill:#1fc300;fill-opacity:1;stroke-width:1" />
</svg>
